<svg width="21" height="21" viewBox="0 0 21 21" fill="none" xmlns="http://www.w3.org/2000/svg">
<path d="M6.59662 19.6874C14.5215 19.6874 18.8567 13.121 18.8567 7.43656C18.8567 7.25281 18.8567 7.06643 18.8488 6.88268C19.6928 6.2717 20.4213 5.51526 21 4.64881C20.2116 4.99642 19.3761 5.22553 18.5207 5.32868C19.4218 4.79008 20.0966 3.94264 20.4199 2.94387C19.5733 3.44541 18.6467 3.79749 17.6807 3.98468C17.0312 3.29303 16.1718 2.83483 15.2356 2.68105C14.2994 2.52728 13.3386 2.68652 12.502 3.1341C11.6654 3.58168 10.9998 4.29263 10.6082 5.15682C10.2166 6.02102 10.1209 6.99022 10.3359 7.91431C8.62279 7.82841 6.94682 7.38336 5.41674 6.60803C3.88667 5.83271 2.53665 4.74442 1.45425 3.41375C0.904759 4.36279 0.737065 5.4854 0.985223 6.55359C1.23338 7.62179 1.87878 8.5555 2.79037 9.16512C2.10727 9.14191 1.43918 8.95848 0.84 8.62962V8.68868C0.841178 9.68288 1.18559 10.6462 1.81502 11.4157C2.44445 12.1853 3.32029 12.714 4.2945 12.9123C3.92472 13.0142 3.54274 13.065 3.15919 13.0632C2.88879 13.0641 2.61894 13.039 2.35331 12.9884C2.62866 13.8443 3.1648 14.5925 3.88664 15.1284C4.60848 15.6643 5.47986 15.961 6.37875 15.977C4.85173 17.1764 2.96546 17.8268 1.02375 17.8237C0.681608 17.8251 0.339705 17.8054 0 17.7646C1.97074 19.021 4.25945 19.6882 6.59662 19.6874Z" fill="#5F328C"/>
</svg>
