<svg width="23" height="23" viewBox="0 0 23 23" fill="none" xmlns="http://www.w3.org/2000/svg">
<path d="M15.8125 2.15625H7.1875C5.85357 2.15768 4.57468 2.68821 3.63145 3.63145C2.68821 4.57468 2.15768 5.85357 2.15625 7.1875V15.8125C2.15768 17.1464 2.68821 18.4253 3.63145 19.3686C4.57468 20.3118 5.85357 20.8423 7.1875 20.8438H15.8125C17.1464 20.8423 18.4253 20.3118 19.3686 19.3686C20.3118 18.4253 20.8423 17.1464 20.8438 15.8125V7.1875C20.8423 5.85357 20.3118 4.57468 19.3686 3.63145C18.4253 2.68821 17.1464 2.15768 15.8125 2.15625ZM11.5 15.8125C10.6471 15.8125 9.81329 15.5596 9.1041 15.0857C8.39492 14.6118 7.84217 13.9383 7.51577 13.1503C7.18937 12.3623 7.10396 11.4952 7.27036 10.6587C7.43676 9.82213 7.84749 9.05372 8.4506 8.4506C9.05372 7.84749 9.82213 7.43676 10.6587 7.27036C11.4952 7.10396 12.3623 7.18937 13.1503 7.51577C13.9383 7.84217 14.6118 8.39492 15.0857 9.1041C15.5596 9.81329 15.8125 10.6471 15.8125 11.5C15.8113 12.6434 15.3566 13.7396 14.5481 14.5481C13.7396 15.3566 12.6434 15.8113 11.5 15.8125ZM16.8906 7.1875C16.6774 7.1875 16.4689 7.12427 16.2917 7.0058C16.1144 6.88734 15.9762 6.71896 15.8946 6.52196C15.813 6.32495 15.7916 6.10818 15.8332 5.89904C15.8748 5.68991 15.9775 5.4978 16.1283 5.34703C16.2791 5.19625 16.4712 5.09357 16.6803 5.05197C16.8894 5.01037 17.1062 5.03172 17.3032 5.11332C17.5002 5.19492 17.6686 5.3331 17.7871 5.5104C17.9055 5.6877 17.9688 5.89614 17.9688 6.10938C17.9688 6.39531 17.8552 6.66954 17.653 6.87172C17.4508 7.07391 17.1766 7.1875 16.8906 7.1875ZM14.375 11.5C14.375 12.0686 14.2064 12.6245 13.8905 13.0973C13.5746 13.5701 13.1256 13.9386 12.6002 14.1562C12.0749 14.3738 11.4968 14.4307 10.9391 14.3198C10.3814 14.2088 9.86914 13.935 9.46707 13.5329C9.06499 13.1309 8.79117 12.6186 8.68024 12.0609C8.56931 11.5032 8.62624 10.9251 8.84385 10.3998C9.06145 9.87445 9.42994 9.42543 9.90274 9.10953C10.3755 8.79362 10.9314 8.625 11.5 8.625C12.2625 8.625 12.9938 8.9279 13.5329 9.46707C14.0721 10.0062 14.375 10.7375 14.375 11.5Z" fill="#5CBAB3"/>
</svg>
